<?xml version="1.0" encoding="UTF-8" standalone="no"?>
<!-- Created with Inkscape (http://www.inkscape.org/) -->

<svg
   xmlns:dc="http://purl.org/dc/elements/1.1/"
   xmlns:cc="http://creativecommons.org/ns#"
   xmlns:rdf="http://www.w3.org/1999/02/22-rdf-syntax-ns#"
   xmlns:svg="http://www.w3.org/2000/svg"
   xmlns="http://www.w3.org/2000/svg"
   xmlns:sodipodi="http://sodipodi.sourceforge.net/DTD/sodipodi-0.dtd"
   xmlns:inkscape="http://www.inkscape.org/namespaces/inkscape"
   width="210mm"
   height="297mm"
   viewBox="0 0 210 297"
   version="1.1"
   id="svg3978"
   inkscape:version="0.92.2 5c3e80d, 2017-08-06"
   sodipodi:docname="github.svg">
  <defs
     id="defs3972" />
  <sodipodi:namedview
     id="base"
     pagecolor="#ffffff"
     bordercolor="#666666"
     borderopacity="1.0"
     inkscape:pageopacity="0.0"
     inkscape:pageshadow="2"
     inkscape:zoom="0.35"
     inkscape:cx="-180"
     inkscape:cy="560"
     inkscape:document-units="mm"
     inkscape:current-layer="layer1"
     showgrid="false"
     inkscape:window-width="1600"
     inkscape:window-height="848"
     inkscape:window-x="0"
     inkscape:window-y="27"
     inkscape:window-maximized="1" />
  <metadata
     id="metadata3975">
    <rdf:RDF>
      <cc:Work
         rdf:about="">
        <dc:format>image/svg+xml</dc:format>
        <dc:type
           rdf:resource="http://purl.org/dc/dcmitype/StillImage" />
        <dc:title></dc:title>
      </cc:Work>
    </rdf:RDF>
  </metadata>
  <g
     inkscape:label="Layer 1"
     inkscape:groupmode="layer"
     id="layer1">
    <path
       d="m 103.68287,53.347892 c -66.547831,0 -120.511284,55.795728 -120.511284,124.628678 0,55.06511 34.530144,101.78204 82.412947,118.26217 6.022774,1.15348 8.23391,-2.70405 8.23391,-5.99586 0,-2.97192 -0.111784,-12.78955 -0.163652,-23.20367 -33.526332,7.5392 -40.60079,-14.7048 -40.60079,-14.7048 -5.481953,-14.40556 -13.380605,-18.23601 -13.380605,-18.23601 -10.9339774,-7.73522 0.824193,-7.57635 0.824193,-7.57635 12.101414,0.87713 18.473414,12.84325 18.473414,12.84325 10.748385,19.0533 28.192068,13.54489 35.068957,10.36043 1.081623,-8.05309 4.20477,-13.55522 7.651197,-16.66545 -26.767199,-3.15147 -54.905386,-13.83804 -54.905386,-61.59302 0,-13.60684 4.707659,-24.72474 12.416726,-33.4527 -1.251253,-3.14112 -5.376195,-15.81512 1.16743,-32.98213 0,0 10.119767,-3.34955 33.149179,12.77518 9.612881,-2.76143 19.922222,-4.14625 30.163764,-4.19376 10.24145,0.0468 20.55879,1.43233 30.18966,4.19376 23.00151,-16.12473 33.10727,-12.77518 33.10727,-12.77518 6.55959,17.16701 2.43267,29.84101 1.18142,32.98213 7.72701,8.72796 12.40275,19.84586 12.40275,33.4527 0,47.86855 -28.19206,58.4085 -55.02712,61.49392 4.32247,3.86765 8.17406,11.45224 8.17406,23.07988 0,16.67369 -0.13973,30.09484 -0.13973,34.20182 0,3.31661 2.16927,7.20258 8.27782,5.97895 47.85688,-16.49832 82.34311,-63.1987 82.34311,-118.24526 -5e-5,-68.83295 -53.9555,-124.628678 -120.50932,-124.628678"
       style="fill:#ffffff;fill-opacity:1;fill-rule:evenodd;stroke:none;stroke-width:0.20294377"
       id="path3843-6"
       inkscape:connector-curvature="0" />
  </g>
</svg>
